<mxfile host="Electron" modified="2024-05-16T08:38:25.766Z" agent="Mozilla/5.0 (Windows NT 10.0; Win64; x64) AppleWebKit/537.36 (KHTML, like Gecko) draw.io/21.2.8 Chrome/112.0.5615.165 Electron/24.2.0 Safari/537.36" etag="vzuxLYcrziJCSFnW61q7" version="21.2.8" type="device">
  <diagram name="第 1 页" id="oBHWzMxMJUBMG0TwcTSp">
    <mxGraphModel dx="1050" dy="671" grid="0" gridSize="10" guides="1" tooltips="1" connect="1" arrows="1" fold="1" page="0" pageScale="1" pageWidth="3300" pageHeight="4681" math="0" shadow="0">
      <root>
        <mxCell id="0" />
        <mxCell id="1" parent="0" />
        <mxCell id="IzTLrQea4lTNUEl9oGYw-1" value="&lt;font color=&quot;#009639&quot;&gt;Ngxin&lt;/font&gt;" style="rounded=1;whiteSpace=wrap;html=1;fontSize=30;arcSize=3;verticalAlign=top;fontColor=#333333;fontStyle=1;fillColor=#f5f5f5;strokeColor=#666666;" vertex="1" parent="1">
          <mxGeometry x="40" width="600" height="280" as="geometry" />
        </mxCell>
        <mxCell id="IzTLrQea4lTNUEl9oGYw-2" value="&lt;b&gt;server&lt;/b&gt;" style="rounded=1;whiteSpace=wrap;html=1;fontSize=16;verticalAlign=top;arcSize=6;fillColor=#dae8fc;strokeColor=#6c8ebf;" vertex="1" parent="1">
          <mxGeometry x="60" y="80" width="160" height="180" as="geometry" />
        </mxCell>
        <mxCell id="IzTLrQea4lTNUEl9oGYw-9" value="www.atguigu.com" style="text;html=1;strokeColor=none;fillColor=none;align=center;verticalAlign=middle;whiteSpace=wrap;rounded=0;fontSize=16;" vertex="1" parent="1">
          <mxGeometry x="75" y="220" width="130" height="30" as="geometry" />
        </mxCell>
        <mxCell id="IzTLrQea4lTNUEl9oGYw-12" value="" style="shape=image;verticalLabelPosition=bottom;labelBackgroundColor=default;verticalAlign=top;aspect=fixed;imageAspect=0;image=data:image/png,iVBORw0KGgoAAAANSUhEUgAAAMgAAADICAYAAACtWK6eAAAAAXNSR0IArs4c6QAAFIhJREFUeF7tnW1y1EgShqsb7rFwkoFbzDgmguWfb7H4Fv4HRBCGWwAnWc89iO7t6pWasiy18s0vVUnpX56xPkpZ+WS+mVUSuxQ/YYGwwKQFdmGbsEBYYNoCAUh4R1jgigUCkHCPsEAAEj4QFuBZIDIIz25x1kYsEIBsZKLjMXkWCEB4douzNmKBAGQjEx2PybNAAMKzW5y1EQsEIBuZ6HhMngUCEJ7d4qyNWCAA2chEx2PyLBCA8OwWZ23EAgHIRiY6HpNngQCEZzfyWX/+efvq5cv06nBIf3QnvToe06v+Arvd5ffL/0spPfZ/Px5//77bXX7/ud+nx1+/0uO3b/eXY8mDigPJFghAyKa6fmAGYb9Pb1JK/zoe05vO8UunV7rTs8ucAckgdQD9fHi4/2R1s61dNwBhzngHxLvu9A/My1ielsH5kVI6Z5svX+7z7/EDWiAAIRqsACJnhX8TT6vpsAswkWHo0xKAzNjq779v33T1Q41Zgj7TT48MWIiWC0BGDLVSKKZcImC5AksA0hmnkFBryhTEOHk5LMPy6eHh/g49ca3Hbx6QAGPUtc+gHA7p89bbyJsFpAPjP40W3F4B+yy/9vv0eatdsM0BksHY7dLH3e68ZhE/dAs87vfp/dZA2QwgkTHoJMwcmaXX3Vak1yYAubm5zVJqy8W3Gh3dhTZTzK8akK5d+/FUcHps+dB2whaut3pQVglI1BnubD0eDuntGmXX6gAJOeUOR3/DVWaT1QCyQNY4O0RK6Z/TDt4s49CffD5V+iHHXhw2d53yNplud7FL1+50rx/HY3q/lmyyCkC6WuM76qGM458toP311+13Tst4v09vT85LGvNpwe71fn8+lgrUBZKHh/vX+T/6BVEnWFbTEm4eEAdJNbmqLIEjryecxn6kQHra+rHrHPy/lOMHx+StI+/L/+e0e2AVkqtZQBwk1dUJ5oKZM0e/2IYAUmQBDiQfxvZXFaDk7ftodqKy2nQB3yQggmhKmdTZyMeVdCUceSAoIBaQFNd8czymdxy5SDBqs5A0BwjXOecmMReXL16ku7mtFNz7D+HgAiKAhFQXGO44yIHnrrWXtZoChOucM3CQHEfgmGkMDgkggrGQI/nNzW2WXXkHgqb0ms3Oc4HM++/NANJNGKedes2mo9p86gROUT4FhxQQCSR9Z2vO2QyLecjuc+O0/HsTgNzc3GYw1N4D5/TqteHQAKS7RrYLGjiedbauOZkRKE1AUj0gHMe8MtlkOVVeg5O9rmWO/tqcIn3s2TjjOy1wvkfrgQ4UznrM1JRAoFpmiqlrVw2IJhw5a3z9ev8WNTKzY0aKjlqAdJkE3bFMrkdKmxlkk6ohqRYQZVlFctgxeFBIERA1AWGuC7Gdk7sONBGg2PODBjz0+CoBYUqGsWdnSar+QpyuWd4WQt2HpAmIoGiHpVZvH2XJVSUk1QHCccoxMpBIPhVVbm5u86o1uc1JqTsGtQ15qwk18jGCyyO1qzU2BmXJVR0kVQGiBcdpIsWGRqUV557aGaQo/tF6hC21BPdUz/jUIIIcVw0gWnCgUXzMWOhYuNnKChBOPaJhN0b2qh6SKgBhdoqeGVdjkruOECStkLrDWmIJ6gOR1Brcl7OhsjQNq8OGZAbqsVUAwpAzlnBAi5ISKK0yiKDJIJZagmbBcE5VgKWCMHXc4oAotAtFnarSMKi04tQdXhmEWRuo2VKpwyWuJZsGhOGQz6KM5sfMwEwmjnDWGaSI5uTVb249daXDRb73yDXUgOWCsmgGQduow4eUyJvhtVBYNe7tAUhXU0H7tTSeTVALPQuCS34xZTFAwGhtVnP0F0bGoxVlvQDJz7jE8ykW7iq1ESeLLAKItB2oGeGy0ZbIHl1kV18onHKCpZ6xqIWgLDbyHIvUI+6AoBPlYShw35daNPPMIGgW6f6dkCcfe+BE4EFTAl3ALE9fpB5xBwRJ9cMJ0ZI25XXRNRjumseYc3kDAj6riUNKupYW8z8HvSsgEmllZZylsoe3xCqkDrLOo5Yty3pE8s9PaMvr2gCBVqjLwedvQ809DOfv1Cier609Buq9Ne9bQxYRrpGI2+uIn5g43YScYOtPq6gBZg/2tvCpCVkCkC5zIQWzehZhjGFoQreC3QUQMGo9MYaVtEIkzul9eJOotRQg4GZGs31RYIB6UrB7rY24ACIpzDXlxaCjgkRR9eyBAGphA7AeNInYQqllktmGqcocEElb10padc5JrocsHHRpQMCsbpJBsw1q9Y8eFHNAuNnDUlqBk2IWqZaSWJyOlnGwQjprlyBv6SMugICO+ERjSl4DnetSINrX2DHcVtLHbALOj4nMyuOSSC3L+cljM80giCMOJtBE8xeRkyqvzKTF0hKrtwWQ4a1tgdSEblnEDBBQ47plDzBqWoO6aAZB262W0RrsrD3xF81XHtyKdG72sJyEziHIeldzW8mYxFm6BinkDfUVWbN6TFiwm43LLINQJ790HI+iC3gHxczohdRbPIPksdQis8CxuKgOE0C4G9IcsgdZ51qPpZYaBI3c1nYBJXAJiUkTwQoQahHsVmyh8spq7aOcUWqWtR4LqP/NMyuQ0cyziDog4Art5QGtI1MHCBVccyeoKYN0Y6HulTPtZqEZrSTEwocsACEXwWOFa/y/sADXAhY1rAUgpMKTa4Q4LyxwxQLq2U0VEK68iikPC2hZQFtmaQMS8kprpuM6LAtoyyxtQEJesaY1TlK0gKrMUgMk5JXiFMelRBbQlFmagIS8Ek1rnKxlAU2ZpQkIdY1Byw5xnbDAlAXUZJYmIFF/hMNWYwEtmaUCSNQf1fhFDOS3BVT2ZmkBAtcf1lvJeztR4dXUrVQvrWUv1nC8wF4o0/dl+nFx3i3Smk8tQOD6w3oDXgEIdY+Ry/6r0hlrBQR4l0clSs8FFA4gWp9q0gIErT/cnLG2yW4EEFJQ0YrSc4DkvwNZ7XI5DZUiBoQqYQZG8ASEmt1c5EILgFDfyfAEhPOOkUahrgEIXH+klNyckfoGoUa0oUTCFgABJI1aO3XOdlRoB9cRS8BFAPF0RqrO9xxTUR+RpKlXvcYpir3GBkB7YUQjw2kAQpUwl4HXaFSvMbWQQfIYqZlXQ8bMZY8ioKC+Js5wGoCQomBhBM/6g/QOukakoU5yK4BQi2JPQKhjKmy8LCCctHcavFgXUp0RaCC4QdsKIDV2/ziFulQ6izII4IClX3gW6KR2pSe0DQFSne04hbo0w7kDIiWamj06HU3tsLlB2xAgJHlq8Y99Ts0xU7GI5lYKCNUBVRdvqJAAMkFkROp4hsdRO2wLNRDWAohI0rsD4jnZAQgX3XMXiwSId4ODGlS0mkIiQBhdBfV/CPOaC1DHJ9WpXDekTrZnUOmfhar3awdEOj5vQMRtN8QZAxDEWk+PrRgQaC0kALniA9TFLs/GQStFOhUQrV2zVJSpQa+/3qKAUB1Qa7BUI/bHUccXgDy3LNAxqlIVaC0WiiQW1QG1CqYABLUA//gA5P+2C0BSSpFB2skgQGeyfyhRhpMCgu7DEvWk0XhYc5coP0uMD53Rs82oK/yXi0u6gAFISq6t51aK9FoBbg0QqOXmuS2hm2DS+EJijUfyGjMcQ2KJAqA0g5AcMLpY7ThgP9Jai3QGIIvWIAEILqMvZ9QYoWsHBF0Hka7TiDKI92BRX6SOL7aaPLdsrQuF6NLCoguFVAfUWrQJQFAL8I+nAiJ1QHSEAQhqsSvHUwGODMLPIAsAAi0tSMcnkliMgknUUUDZoQLi+RmiVtq81O3uC3QmIUCk45MCAi/aeLZUAYDjhalB9AlAdLaakF6qKW3vKWcCEDTn/j6+RkCA1nP54KLgJ8og1EJuQUCoGc51C0xvj5rbvMCKtdsXYQBoLy4nDcgiQJhEuzkj1aDSQo4bpysHhPq9AVGERmwHQHu5rFTSiwDptnNARZOnM1IznOeYGirSqYvAnoBQob2YWbJRMV9EDAjQKeoHLVr6RyIOkOHcxrQ2QKQRGplPdA1Euoq+FCBJqgupRgUAcW0/N1KDkJSBNEJT55KjVqQtXhVAOLrQC5DOqCSp4Dmm2gGhStP8HF6AUOvJAXDiBoJYYiHGLAbvVqhTJWAAgrd4PWs3oGWv1uJVySCIjOlHXqlh3aCtPYMAqkAcoakSi1F/qLxKLc4g+QGpUbowhltRXONkNwAItVvkFlSoLfESOA35txQgboU6Vbt6ZrXaAQECnkuLlynjVbKbCiBUJ6Sm0zguLKBgARV4VQDh1CEKBohLhAUmLaC1PqMCCLNHHdMbFjCzgEb9odLF6p8Q0K1mRokLhwU6C6jUH6qAMAupmNGwgIUFVOoPVUCiDrGY57gmxwJa8koVEOZ6COf545ywwDULqMkrdUBCZoXnVmABNXmlDkjIrArcY+ND0JRX6oCEzNq4dy7/+KryygQQrsyy3k0LZjd1Q4/5DnV/kXZUnBgLdf+V+RZ3rg9ZfL5JbaGwN3rniN9PL6u8QgKKx14oYMu0y2bKygAhvTej8RLSnF9w19QsAok6IPnhuXuzrLMIEpmsx9LZqYq39pD5srYLMkcD0Ex2FpsAAsqZ8jnNIzc1OjlltFoAqUZeUednmIUssodJDdIPHJAzT57VOkIB74c8Hg7p7bdv949zkoD791okFnUc1vIKyWQDm5vVjCYZJA++1iwCpnCTtF0EkcUzCOKUDsGLWgc94UNr5+5YoDMDRNjyVV3sGT44kMZNJR81clvJh64OIjul8Tjgz9h282qWPUwlljSLWMobQGaZvvm4NCBI9nCQV2RQy4BnndVMM4gwi5hFBlD+mY2jAkDIxbmljAEy+hMx4NFIMQcE1PxDNWQmtYBJMZNZFQBCqoE0vlA41ciQ+Id19jCXWNKOVp4YK6mFyCyLFdql10FAeWUWqKhBYgQws8xe3ss8gwhrkXy6iSFAmWWSRajOYVEcI9+ZspJXQBZ/xofVmIY3cgGki5bcLkU+3SSCgWs16i3fpQABs4dJgJJIq5NDqM/FlAR0A4S7R6sbuInUWjqLLAgItfZQ+Trh0PlAuw9PN8nmiwOSByCMGiaGAbOIajRdApAln7d3Qom08ijM3WuQ8oYS41jUI2A0e9zv0/svX+5/TEUc5P97AwI+q0n2kMy/R1t3sRqkvzE6SSMOp64/kaiqOUnegIDOqZotuzqU+m9GjsYZ7+zh1uYdPi1YJI4ZSxUSFFqtifIEBJW32l0i9P4jk27SqJnL+G5F+ggk5FXckYdQlTr5+mB0VamHPAEBn081e0jh0Mzac0AsLrEGUgt+87B4ANXOFppFNFrPXoCgGVsrQ+a5Yth10a5VNYBoGU9zpR2MsuIs4ggIshFQLXsowGG6WZSSTRaTWP3gwC0fY8+klkkYEyqqhTwAQe2rlT0YtjSvNSlAVJVB+iyy26WPu116w3mA7hy1msTToawBYWh/lezBuO+zqV+y7igHs3gGKaSWpB7Jl1GBhLHiz85gloAwIrhYMuZJ0IDDcpMqGoSrAESpHjlD0i0m3qGGKI9nTDLLuSwBAespFa3PsNvoNGnJPIkP9OdWA4hm9NGABFk87IwJyxMrQFCZqLFDAe2UTTlvTXDkMVYFSB6QlqFP1xIV0AyplYcPLWZZAMKJ4tLt9Gi2agWOKgHpIBFtSSgmgF0fMGGF7qcNCKPuEEkrZhCZ4gMKLhryiXKN6jJIP2iGTJh6XlFdwpBa5HpEGxA0kks6RYqZPs8bLE8pzq1xTLWAKGeSfDmW5OJEZeqEawLCCSjc/VaMoDHpqxJINQCYu0bVgHTO+S4799yDEP/OagUzo+UskFqAcOoOtF4qmih5Dx30YfKpuakdjmprkKFBOdFxBphPh0O6Qz4ryoiaWdrdPTzcf5oaiwYgHDhQx+wCVa4L82vTWj/VyqryAavOIOVADSCBapPsJIwV/6sZSwqIBxwGds/TWmVBPkZ+M4Awu0qUaEcGhdm1mYREAggHDmSFuru+mpzqJ6K2dY45B2kKkPwwzKJ5zg4py44XL9Ld3Ou0zPuPQsIFhAkHqaXLzJSz9s0HtAZHMzXI0PrMSE6axG67ylztwPmE0TNIOIBYwdE1InKdoVKAD4zNao5QJ8zyuOYySG8My0jX3eOq9GJq8yeOggLCheP0PKMdtaJLmIG3AOOcmb9+vX9r6cSW124WkEJuabaBx2x9BuUkD34O5Rejs5Wvf1ltRwDhwjHmoAbt8ykfnW11Wzq3xrWbBqTMJvt9km6Xp9jzCSyCLHaGZL9P+U2/2Z+8oEc9dihtHh7uXw+CiVm2KO7drKQaTsYqAHHMJqX9zrCcWpb/pJQ42j2fbyJreomYv+F1OKQ/uvULy3td7NK6pFotIP2DMWuD2SgeB5As0LykWj0gfTZhLOqRPCAOem6BnDWOx/Qe2ZnQih1XI7HGDG7cumxlji3HObudxvLmHtdeNSAL1SYe81bDPVYnp8aMunpA+od2bG3W4LxmY1hbET5nqM0AUoIS9cmcW4z+fTWtW+TpNwfIIKNob+FGbN/KsfCrAa08GGWcmwUkpNese3w4LVB+XmNnavbJiwM2D8gIKB4rzcgceR5L3vrvOagl7xWADKzfFfP5M6j9CvSS8+Nx78uOgGtvP3oMpMZ7BCBXZmXFsAQURBoDEKKhVgDL4/GYHk8fCf9x+lCc6NOsRJOt4rAAhDmNJTDHY8rvq0u+Ts8cxdXT+iyR/zHOzRfbXAMHIFzLXaldMjD5z47QXLJDvm9kCKVJrfHbvHqPVseVcqZ5+TK9OhzO0OTCP79ld9l6vttdfi+3o+fof/7Jsqj/fbc7/37+7/wC169f6XHrbVjrWY4MYm3huH7TFghAmp6+GLy1BQIQawvH9Zu2QADS9PTF4K0tEIBYWziu37QFApCmpy8Gb22BAMTawnH9pi0QgDQ9fTF4awsEINYWjus3bYEApOnpi8FbWyAAsbZwXL9pCwQgTU9fDN7aAgGItYXj+k1bIABpevpi8NYWCECsLRzXb9oC/wNvkTibUnA0iQAAAABJRU5ErkJggg==;" vertex="1" parent="1">
          <mxGeometry x="100" y="130" width="80" height="80" as="geometry" />
        </mxCell>
        <mxCell id="IzTLrQea4lTNUEl9oGYw-13" value="&lt;b&gt;server&lt;/b&gt;" style="rounded=1;whiteSpace=wrap;html=1;fontSize=16;verticalAlign=top;arcSize=6;fillColor=#d5e8d4;strokeColor=#82b366;" vertex="1" parent="1">
          <mxGeometry x="260" y="80" width="160" height="180" as="geometry" />
        </mxCell>
        <mxCell id="IzTLrQea4lTNUEl9oGYw-14" value="admin.atguigu.com" style="text;html=1;strokeColor=none;fillColor=none;align=center;verticalAlign=middle;whiteSpace=wrap;rounded=0;fontSize=16;" vertex="1" parent="1">
          <mxGeometry x="275" y="220" width="130" height="30" as="geometry" />
        </mxCell>
        <mxCell id="IzTLrQea4lTNUEl9oGYw-15" value="" style="shape=image;verticalLabelPosition=bottom;labelBackgroundColor=default;verticalAlign=top;aspect=fixed;imageAspect=0;image=data:image/png,iVBORw0KGgoAAAANSUhEUgAAAMgAAADICAYAAACtWK6eAAAAAXNSR0IArs4c6QAAFIhJREFUeF7tnW1y1EgShqsb7rFwkoFbzDgmguWfb7H4Fv4HRBCGWwAnWc89iO7t6pWasiy18s0vVUnpX56xPkpZ+WS+mVUSuxQ/YYGwwKQFdmGbsEBYYNoCAUh4R1jgigUCkHCPsEAAEj4QFuBZIDIIz25x1kYsEIBsZKLjMXkWCEB4douzNmKBAGQjEx2PybNAAMKzW5y1EQsEIBuZ6HhMngUCEJ7d4qyNWCAA2chEx2PyLBCA8OwWZ23EAgHIRiY6HpNngQCEZzfyWX/+efvq5cv06nBIf3QnvToe06v+Arvd5ffL/0spPfZ/Px5//77bXX7/ud+nx1+/0uO3b/eXY8mDigPJFghAyKa6fmAGYb9Pb1JK/zoe05vO8UunV7rTs8ucAckgdQD9fHi4/2R1s61dNwBhzngHxLvu9A/My1ielsH5kVI6Z5svX+7z7/EDWiAAIRqsACJnhX8TT6vpsAswkWHo0xKAzNjq779v33T1Q41Zgj7TT48MWIiWC0BGDLVSKKZcImC5AksA0hmnkFBryhTEOHk5LMPy6eHh/g49ca3Hbx6QAGPUtc+gHA7p89bbyJsFpAPjP40W3F4B+yy/9vv0eatdsM0BksHY7dLH3e68ZhE/dAs87vfp/dZA2QwgkTHoJMwcmaXX3Vak1yYAubm5zVJqy8W3Gh3dhTZTzK8akK5d+/FUcHps+dB2whaut3pQVglI1BnubD0eDuntGmXX6gAJOeUOR3/DVWaT1QCyQNY4O0RK6Z/TDt4s49CffD5V+iHHXhw2d53yNplud7FL1+50rx/HY3q/lmyyCkC6WuM76qGM458toP311+13Tst4v09vT85LGvNpwe71fn8+lgrUBZKHh/vX+T/6BVEnWFbTEm4eEAdJNbmqLIEjryecxn6kQHra+rHrHPy/lOMHx+StI+/L/+e0e2AVkqtZQBwk1dUJ5oKZM0e/2IYAUmQBDiQfxvZXFaDk7ftodqKy2nQB3yQggmhKmdTZyMeVdCUceSAoIBaQFNd8czymdxy5SDBqs5A0BwjXOecmMReXL16ku7mtFNz7D+HgAiKAhFQXGO44yIHnrrWXtZoChOucM3CQHEfgmGkMDgkggrGQI/nNzW2WXXkHgqb0ms3Oc4HM++/NANJNGKedes2mo9p86gROUT4FhxQQCSR9Z2vO2QyLecjuc+O0/HsTgNzc3GYw1N4D5/TqteHQAKS7RrYLGjiedbauOZkRKE1AUj0gHMe8MtlkOVVeg5O9rmWO/tqcIn3s2TjjOy1wvkfrgQ4UznrM1JRAoFpmiqlrVw2IJhw5a3z9ev8WNTKzY0aKjlqAdJkE3bFMrkdKmxlkk6ohqRYQZVlFctgxeFBIERA1AWGuC7Gdk7sONBGg2PODBjz0+CoBYUqGsWdnSar+QpyuWd4WQt2HpAmIoGiHpVZvH2XJVSUk1QHCccoxMpBIPhVVbm5u86o1uc1JqTsGtQ15qwk18jGCyyO1qzU2BmXJVR0kVQGiBcdpIsWGRqUV557aGaQo/tF6hC21BPdUz/jUIIIcVw0gWnCgUXzMWOhYuNnKChBOPaJhN0b2qh6SKgBhdoqeGVdjkruOECStkLrDWmIJ6gOR1Brcl7OhsjQNq8OGZAbqsVUAwpAzlnBAi5ISKK0yiKDJIJZagmbBcE5VgKWCMHXc4oAotAtFnarSMKi04tQdXhmEWRuo2VKpwyWuJZsGhOGQz6KM5sfMwEwmjnDWGaSI5uTVb249daXDRb73yDXUgOWCsmgGQduow4eUyJvhtVBYNe7tAUhXU0H7tTSeTVALPQuCS34xZTFAwGhtVnP0F0bGoxVlvQDJz7jE8ykW7iq1ESeLLAKItB2oGeGy0ZbIHl1kV18onHKCpZ6xqIWgLDbyHIvUI+6AoBPlYShw35daNPPMIGgW6f6dkCcfe+BE4EFTAl3ALE9fpB5xBwRJ9cMJ0ZI25XXRNRjumseYc3kDAj6riUNKupYW8z8HvSsgEmllZZylsoe3xCqkDrLOo5Yty3pE8s9PaMvr2gCBVqjLwedvQ809DOfv1Cier609Buq9Ne9bQxYRrpGI2+uIn5g43YScYOtPq6gBZg/2tvCpCVkCkC5zIQWzehZhjGFoQreC3QUQMGo9MYaVtEIkzul9eJOotRQg4GZGs31RYIB6UrB7rY24ACIpzDXlxaCjgkRR9eyBAGphA7AeNInYQqllktmGqcocEElb10padc5JrocsHHRpQMCsbpJBsw1q9Y8eFHNAuNnDUlqBk2IWqZaSWJyOlnGwQjprlyBv6SMugICO+ERjSl4DnetSINrX2DHcVtLHbALOj4nMyuOSSC3L+cljM80giCMOJtBE8xeRkyqvzKTF0hKrtwWQ4a1tgdSEblnEDBBQ47plDzBqWoO6aAZB262W0RrsrD3xF81XHtyKdG72sJyEziHIeldzW8mYxFm6BinkDfUVWbN6TFiwm43LLINQJ790HI+iC3gHxczohdRbPIPksdQis8CxuKgOE0C4G9IcsgdZ51qPpZYaBI3c1nYBJXAJiUkTwQoQahHsVmyh8spq7aOcUWqWtR4LqP/NMyuQ0cyziDog4Art5QGtI1MHCBVccyeoKYN0Y6HulTPtZqEZrSTEwocsACEXwWOFa/y/sADXAhY1rAUgpMKTa4Q4LyxwxQLq2U0VEK68iikPC2hZQFtmaQMS8kprpuM6LAtoyyxtQEJesaY1TlK0gKrMUgMk5JXiFMelRBbQlFmagIS8Ek1rnKxlAU2ZpQkIdY1Byw5xnbDAlAXUZJYmIFF/hMNWYwEtmaUCSNQf1fhFDOS3BVT2ZmkBAtcf1lvJeztR4dXUrVQvrWUv1nC8wF4o0/dl+nFx3i3Smk8tQOD6w3oDXgEIdY+Ry/6r0hlrBQR4l0clSs8FFA4gWp9q0gIErT/cnLG2yW4EEFJQ0YrSc4DkvwNZ7XI5DZUiBoQqYQZG8ASEmt1c5EILgFDfyfAEhPOOkUahrgEIXH+klNyckfoGoUa0oUTCFgABJI1aO3XOdlRoB9cRS8BFAPF0RqrO9xxTUR+RpKlXvcYpir3GBkB7YUQjw2kAQpUwl4HXaFSvMbWQQfIYqZlXQ8bMZY8ioKC+Js5wGoCQomBhBM/6g/QOukakoU5yK4BQi2JPQKhjKmy8LCCctHcavFgXUp0RaCC4QdsKIDV2/ziFulQ6izII4IClX3gW6KR2pSe0DQFSne04hbo0w7kDIiWamj06HU3tsLlB2xAgJHlq8Y99Ts0xU7GI5lYKCNUBVRdvqJAAMkFkROp4hsdRO2wLNRDWAohI0rsD4jnZAQgX3XMXiwSId4ODGlS0mkIiQBhdBfV/CPOaC1DHJ9WpXDekTrZnUOmfhar3awdEOj5vQMRtN8QZAxDEWk+PrRgQaC0kALniA9TFLs/GQStFOhUQrV2zVJSpQa+/3qKAUB1Qa7BUI/bHUccXgDy3LNAxqlIVaC0WiiQW1QG1CqYABLUA//gA5P+2C0BSSpFB2skgQGeyfyhRhpMCgu7DEvWk0XhYc5coP0uMD53Rs82oK/yXi0u6gAFISq6t51aK9FoBbg0QqOXmuS2hm2DS+EJijUfyGjMcQ2KJAqA0g5AcMLpY7ThgP9Jai3QGIIvWIAEILqMvZ9QYoWsHBF0Hka7TiDKI92BRX6SOL7aaPLdsrQuF6NLCoguFVAfUWrQJQFAL8I+nAiJ1QHSEAQhqsSvHUwGODMLPIAsAAi0tSMcnkliMgknUUUDZoQLi+RmiVtq81O3uC3QmIUCk45MCAi/aeLZUAYDjhalB9AlAdLaakF6qKW3vKWcCEDTn/j6+RkCA1nP54KLgJ8og1EJuQUCoGc51C0xvj5rbvMCKtdsXYQBoLy4nDcgiQJhEuzkj1aDSQo4bpysHhPq9AVGERmwHQHu5rFTSiwDptnNARZOnM1IznOeYGirSqYvAnoBQob2YWbJRMV9EDAjQKeoHLVr6RyIOkOHcxrQ2QKQRGplPdA1Euoq+FCBJqgupRgUAcW0/N1KDkJSBNEJT55KjVqQtXhVAOLrQC5DOqCSp4Dmm2gGhStP8HF6AUOvJAXDiBoJYYiHGLAbvVqhTJWAAgrd4PWs3oGWv1uJVySCIjOlHXqlh3aCtPYMAqkAcoakSi1F/qLxKLc4g+QGpUbowhltRXONkNwAItVvkFlSoLfESOA35txQgboU6Vbt6ZrXaAQECnkuLlynjVbKbCiBUJ6Sm0zguLKBgARV4VQDh1CEKBohLhAUmLaC1PqMCCLNHHdMbFjCzgEb9odLF6p8Q0K1mRokLhwU6C6jUH6qAMAupmNGwgIUFVOoPVUCiDrGY57gmxwJa8koVEOZ6COf545ywwDULqMkrdUBCZoXnVmABNXmlDkjIrArcY+ND0JRX6oCEzNq4dy7/+KryygQQrsyy3k0LZjd1Q4/5DnV/kXZUnBgLdf+V+RZ3rg9ZfL5JbaGwN3rniN9PL6u8QgKKx14oYMu0y2bKygAhvTej8RLSnF9w19QsAok6IPnhuXuzrLMIEpmsx9LZqYq39pD5srYLMkcD0Ex2FpsAAsqZ8jnNIzc1OjlltFoAqUZeUednmIUssodJDdIPHJAzT57VOkIB74c8Hg7p7bdv949zkoD791okFnUc1vIKyWQDm5vVjCYZJA++1iwCpnCTtF0EkcUzCOKUDsGLWgc94UNr5+5YoDMDRNjyVV3sGT44kMZNJR81clvJh64OIjul8Tjgz9h282qWPUwlljSLWMobQGaZvvm4NCBI9nCQV2RQy4BnndVMM4gwi5hFBlD+mY2jAkDIxbmljAEy+hMx4NFIMQcE1PxDNWQmtYBJMZNZFQBCqoE0vlA41ciQ+Id19jCXWNKOVp4YK6mFyCyLFdql10FAeWUWqKhBYgQws8xe3ss8gwhrkXy6iSFAmWWSRajOYVEcI9+ZspJXQBZ/xofVmIY3cgGki5bcLkU+3SSCgWs16i3fpQABs4dJgJJIq5NDqM/FlAR0A4S7R6sbuInUWjqLLAgItfZQ+Trh0PlAuw9PN8nmiwOSByCMGiaGAbOIajRdApAln7d3Qom08ijM3WuQ8oYS41jUI2A0e9zv0/svX+5/TEUc5P97AwI+q0n2kMy/R1t3sRqkvzE6SSMOp64/kaiqOUnegIDOqZotuzqU+m9GjsYZ7+zh1uYdPi1YJI4ZSxUSFFqtifIEBJW32l0i9P4jk27SqJnL+G5F+ggk5FXckYdQlTr5+mB0VamHPAEBn081e0jh0Mzac0AsLrEGUgt+87B4ANXOFppFNFrPXoCgGVsrQ+a5Yth10a5VNYBoGU9zpR2MsuIs4ggIshFQLXsowGG6WZSSTRaTWP3gwC0fY8+klkkYEyqqhTwAQe2rlT0YtjSvNSlAVJVB+iyy26WPu116w3mA7hy1msTToawBYWh/lezBuO+zqV+y7igHs3gGKaSWpB7Jl1GBhLHiz85gloAwIrhYMuZJ0IDDcpMqGoSrAESpHjlD0i0m3qGGKI9nTDLLuSwBAespFa3PsNvoNGnJPIkP9OdWA4hm9NGABFk87IwJyxMrQFCZqLFDAe2UTTlvTXDkMVYFSB6QlqFP1xIV0AyplYcPLWZZAMKJ4tLt9Gi2agWOKgHpIBFtSSgmgF0fMGGF7qcNCKPuEEkrZhCZ4gMKLhryiXKN6jJIP2iGTJh6XlFdwpBa5HpEGxA0kks6RYqZPs8bLE8pzq1xTLWAKGeSfDmW5OJEZeqEawLCCSjc/VaMoDHpqxJINQCYu0bVgHTO+S4799yDEP/OagUzo+UskFqAcOoOtF4qmih5Dx30YfKpuakdjmprkKFBOdFxBphPh0O6Qz4ryoiaWdrdPTzcf5oaiwYgHDhQx+wCVa4L82vTWj/VyqryAavOIOVADSCBapPsJIwV/6sZSwqIBxwGds/TWmVBPkZ+M4Awu0qUaEcGhdm1mYREAggHDmSFuru+mpzqJ6K2dY45B2kKkPwwzKJ5zg4py44XL9Ld3Ou0zPuPQsIFhAkHqaXLzJSz9s0HtAZHMzXI0PrMSE6axG67ylztwPmE0TNIOIBYwdE1InKdoVKAD4zNao5QJ8zyuOYySG8My0jX3eOq9GJq8yeOggLCheP0PKMdtaJLmIG3AOOcmb9+vX9r6cSW124WkEJuabaBx2x9BuUkD34O5Rejs5Wvf1ltRwDhwjHmoAbt8ykfnW11Wzq3xrWbBqTMJvt9km6Xp9jzCSyCLHaGZL9P+U2/2Z+8oEc9dihtHh7uXw+CiVm2KO7drKQaTsYqAHHMJqX9zrCcWpb/pJQ42j2fbyJreomYv+F1OKQ/uvULy3td7NK6pFotIP2DMWuD2SgeB5As0LykWj0gfTZhLOqRPCAOem6BnDWOx/Qe2ZnQih1XI7HGDG7cumxlji3HObudxvLmHtdeNSAL1SYe81bDPVYnp8aMunpA+od2bG3W4LxmY1hbET5nqM0AUoIS9cmcW4z+fTWtW+TpNwfIIKNob+FGbN/KsfCrAa08GGWcmwUkpNese3w4LVB+XmNnavbJiwM2D8gIKB4rzcgceR5L3vrvOagl7xWADKzfFfP5M6j9CvSS8+Nx78uOgGtvP3oMpMZ7BCBXZmXFsAQURBoDEKKhVgDL4/GYHk8fCf9x+lCc6NOsRJOt4rAAhDmNJTDHY8rvq0u+Ts8cxdXT+iyR/zHOzRfbXAMHIFzLXaldMjD5z47QXLJDvm9kCKVJrfHbvHqPVseVcqZ5+TK9OhzO0OTCP79ld9l6vttdfi+3o+fof/7Jsqj/fbc7/37+7/wC169f6XHrbVjrWY4MYm3huH7TFghAmp6+GLy1BQIQawvH9Zu2QADS9PTF4K0tEIBYWziu37QFApCmpy8Gb22BAMTawnH9pi0QgDQ9fTF4awsEINYWjus3bYEApOnpi8FbWyAAsbZwXL9pCwQgTU9fDN7aAgGItYXj+k1bIABpevpi8NYWCECsLRzXb9oC/wNvkTibUnA0iQAAAABJRU5ErkJggg==;" vertex="1" parent="1">
          <mxGeometry x="300" y="130" width="80" height="80" as="geometry" />
        </mxCell>
        <mxCell id="IzTLrQea4lTNUEl9oGYw-16" value="&lt;b&gt;server&lt;/b&gt;" style="rounded=1;whiteSpace=wrap;html=1;fontSize=16;verticalAlign=top;arcSize=6;fillColor=#fff2cc;strokeColor=#d6b656;" vertex="1" parent="1">
          <mxGeometry x="460" y="80" width="160" height="180" as="geometry" />
        </mxCell>
        <mxCell id="IzTLrQea4lTNUEl9oGYw-17" value="crm.atguigu.com" style="text;html=1;strokeColor=none;fillColor=none;align=center;verticalAlign=middle;whiteSpace=wrap;rounded=0;fontSize=16;" vertex="1" parent="1">
          <mxGeometry x="475" y="220" width="130" height="30" as="geometry" />
        </mxCell>
        <mxCell id="IzTLrQea4lTNUEl9oGYw-18" value="" style="shape=image;verticalLabelPosition=bottom;labelBackgroundColor=default;verticalAlign=top;aspect=fixed;imageAspect=0;image=data:image/png,iVBORw0KGgoAAAANSUhEUgAAAMgAAADICAYAAACtWK6eAAAAAXNSR0IArs4c6QAAFIhJREFUeF7tnW1y1EgShqsb7rFwkoFbzDgmguWfb7H4Fv4HRBCGWwAnWc89iO7t6pWasiy18s0vVUnpX56xPkpZ+WS+mVUSuxQ/YYGwwKQFdmGbsEBYYNoCAUh4R1jgigUCkHCPsEAAEj4QFuBZIDIIz25x1kYsEIBsZKLjMXkWCEB4douzNmKBAGQjEx2PybNAAMKzW5y1EQsEIBuZ6HhMngUCEJ7d4qyNWCAA2chEx2PyLBCA8OwWZ23EAgHIRiY6HpNngQCEZzfyWX/+efvq5cv06nBIf3QnvToe06v+Arvd5ffL/0spPfZ/Px5//77bXX7/ud+nx1+/0uO3b/eXY8mDigPJFghAyKa6fmAGYb9Pb1JK/zoe05vO8UunV7rTs8ucAckgdQD9fHi4/2R1s61dNwBhzngHxLvu9A/My1ielsH5kVI6Z5svX+7z7/EDWiAAIRqsACJnhX8TT6vpsAswkWHo0xKAzNjq779v33T1Q41Zgj7TT48MWIiWC0BGDLVSKKZcImC5AksA0hmnkFBryhTEOHk5LMPy6eHh/g49ca3Hbx6QAGPUtc+gHA7p89bbyJsFpAPjP40W3F4B+yy/9vv0eatdsM0BksHY7dLH3e68ZhE/dAs87vfp/dZA2QwgkTHoJMwcmaXX3Vak1yYAubm5zVJqy8W3Gh3dhTZTzK8akK5d+/FUcHps+dB2whaut3pQVglI1BnubD0eDuntGmXX6gAJOeUOR3/DVWaT1QCyQNY4O0RK6Z/TDt4s49CffD5V+iHHXhw2d53yNplud7FL1+50rx/HY3q/lmyyCkC6WuM76qGM458toP311+13Tst4v09vT85LGvNpwe71fn8+lgrUBZKHh/vX+T/6BVEnWFbTEm4eEAdJNbmqLIEjryecxn6kQHra+rHrHPy/lOMHx+StI+/L/+e0e2AVkqtZQBwk1dUJ5oKZM0e/2IYAUmQBDiQfxvZXFaDk7ftodqKy2nQB3yQggmhKmdTZyMeVdCUceSAoIBaQFNd8czymdxy5SDBqs5A0BwjXOecmMReXL16ku7mtFNz7D+HgAiKAhFQXGO44yIHnrrWXtZoChOucM3CQHEfgmGkMDgkggrGQI/nNzW2WXXkHgqb0ms3Oc4HM++/NANJNGKedes2mo9p86gROUT4FhxQQCSR9Z2vO2QyLecjuc+O0/HsTgNzc3GYw1N4D5/TqteHQAKS7RrYLGjiedbauOZkRKE1AUj0gHMe8MtlkOVVeg5O9rmWO/tqcIn3s2TjjOy1wvkfrgQ4UznrM1JRAoFpmiqlrVw2IJhw5a3z9ev8WNTKzY0aKjlqAdJkE3bFMrkdKmxlkk6ohqRYQZVlFctgxeFBIERA1AWGuC7Gdk7sONBGg2PODBjz0+CoBYUqGsWdnSar+QpyuWd4WQt2HpAmIoGiHpVZvH2XJVSUk1QHCccoxMpBIPhVVbm5u86o1uc1JqTsGtQ15qwk18jGCyyO1qzU2BmXJVR0kVQGiBcdpIsWGRqUV557aGaQo/tF6hC21BPdUz/jUIIIcVw0gWnCgUXzMWOhYuNnKChBOPaJhN0b2qh6SKgBhdoqeGVdjkruOECStkLrDWmIJ6gOR1Brcl7OhsjQNq8OGZAbqsVUAwpAzlnBAi5ISKK0yiKDJIJZagmbBcE5VgKWCMHXc4oAotAtFnarSMKi04tQdXhmEWRuo2VKpwyWuJZsGhOGQz6KM5sfMwEwmjnDWGaSI5uTVb249daXDRb73yDXUgOWCsmgGQduow4eUyJvhtVBYNe7tAUhXU0H7tTSeTVALPQuCS34xZTFAwGhtVnP0F0bGoxVlvQDJz7jE8ykW7iq1ESeLLAKItB2oGeGy0ZbIHl1kV18onHKCpZ6xqIWgLDbyHIvUI+6AoBPlYShw35daNPPMIGgW6f6dkCcfe+BE4EFTAl3ALE9fpB5xBwRJ9cMJ0ZI25XXRNRjumseYc3kDAj6riUNKupYW8z8HvSsgEmllZZylsoe3xCqkDrLOo5Yty3pE8s9PaMvr2gCBVqjLwedvQ809DOfv1Cier609Buq9Ne9bQxYRrpGI2+uIn5g43YScYOtPq6gBZg/2tvCpCVkCkC5zIQWzehZhjGFoQreC3QUQMGo9MYaVtEIkzul9eJOotRQg4GZGs31RYIB6UrB7rY24ACIpzDXlxaCjgkRR9eyBAGphA7AeNInYQqllktmGqcocEElb10padc5JrocsHHRpQMCsbpJBsw1q9Y8eFHNAuNnDUlqBk2IWqZaSWJyOlnGwQjprlyBv6SMugICO+ERjSl4DnetSINrX2DHcVtLHbALOj4nMyuOSSC3L+cljM80giCMOJtBE8xeRkyqvzKTF0hKrtwWQ4a1tgdSEblnEDBBQ47plDzBqWoO6aAZB262W0RrsrD3xF81XHtyKdG72sJyEziHIeldzW8mYxFm6BinkDfUVWbN6TFiwm43LLINQJ790HI+iC3gHxczohdRbPIPksdQis8CxuKgOE0C4G9IcsgdZ51qPpZYaBI3c1nYBJXAJiUkTwQoQahHsVmyh8spq7aOcUWqWtR4LqP/NMyuQ0cyziDog4Art5QGtI1MHCBVccyeoKYN0Y6HulTPtZqEZrSTEwocsACEXwWOFa/y/sADXAhY1rAUgpMKTa4Q4LyxwxQLq2U0VEK68iikPC2hZQFtmaQMS8kprpuM6LAtoyyxtQEJesaY1TlK0gKrMUgMk5JXiFMelRBbQlFmagIS8Ek1rnKxlAU2ZpQkIdY1Byw5xnbDAlAXUZJYmIFF/hMNWYwEtmaUCSNQf1fhFDOS3BVT2ZmkBAtcf1lvJeztR4dXUrVQvrWUv1nC8wF4o0/dl+nFx3i3Smk8tQOD6w3oDXgEIdY+Ry/6r0hlrBQR4l0clSs8FFA4gWp9q0gIErT/cnLG2yW4EEFJQ0YrSc4DkvwNZ7XI5DZUiBoQqYQZG8ASEmt1c5EILgFDfyfAEhPOOkUahrgEIXH+klNyckfoGoUa0oUTCFgABJI1aO3XOdlRoB9cRS8BFAPF0RqrO9xxTUR+RpKlXvcYpir3GBkB7YUQjw2kAQpUwl4HXaFSvMbWQQfIYqZlXQ8bMZY8ioKC+Js5wGoCQomBhBM/6g/QOukakoU5yK4BQi2JPQKhjKmy8LCCctHcavFgXUp0RaCC4QdsKIDV2/ziFulQ6izII4IClX3gW6KR2pSe0DQFSne04hbo0w7kDIiWamj06HU3tsLlB2xAgJHlq8Y99Ts0xU7GI5lYKCNUBVRdvqJAAMkFkROp4hsdRO2wLNRDWAohI0rsD4jnZAQgX3XMXiwSId4ODGlS0mkIiQBhdBfV/CPOaC1DHJ9WpXDekTrZnUOmfhar3awdEOj5vQMRtN8QZAxDEWk+PrRgQaC0kALniA9TFLs/GQStFOhUQrV2zVJSpQa+/3qKAUB1Qa7BUI/bHUccXgDy3LNAxqlIVaC0WiiQW1QG1CqYABLUA//gA5P+2C0BSSpFB2skgQGeyfyhRhpMCgu7DEvWk0XhYc5coP0uMD53Rs82oK/yXi0u6gAFISq6t51aK9FoBbg0QqOXmuS2hm2DS+EJijUfyGjMcQ2KJAqA0g5AcMLpY7ThgP9Jai3QGIIvWIAEILqMvZ9QYoWsHBF0Hka7TiDKI92BRX6SOL7aaPLdsrQuF6NLCoguFVAfUWrQJQFAL8I+nAiJ1QHSEAQhqsSvHUwGODMLPIAsAAi0tSMcnkliMgknUUUDZoQLi+RmiVtq81O3uC3QmIUCk45MCAi/aeLZUAYDjhalB9AlAdLaakF6qKW3vKWcCEDTn/j6+RkCA1nP54KLgJ8og1EJuQUCoGc51C0xvj5rbvMCKtdsXYQBoLy4nDcgiQJhEuzkj1aDSQo4bpysHhPq9AVGERmwHQHu5rFTSiwDptnNARZOnM1IznOeYGirSqYvAnoBQob2YWbJRMV9EDAjQKeoHLVr6RyIOkOHcxrQ2QKQRGplPdA1Euoq+FCBJqgupRgUAcW0/N1KDkJSBNEJT55KjVqQtXhVAOLrQC5DOqCSp4Dmm2gGhStP8HF6AUOvJAXDiBoJYYiHGLAbvVqhTJWAAgrd4PWs3oGWv1uJVySCIjOlHXqlh3aCtPYMAqkAcoakSi1F/qLxKLc4g+QGpUbowhltRXONkNwAItVvkFlSoLfESOA35txQgboU6Vbt6ZrXaAQECnkuLlynjVbKbCiBUJ6Sm0zguLKBgARV4VQDh1CEKBohLhAUmLaC1PqMCCLNHHdMbFjCzgEb9odLF6p8Q0K1mRokLhwU6C6jUH6qAMAupmNGwgIUFVOoPVUCiDrGY57gmxwJa8koVEOZ6COf545ywwDULqMkrdUBCZoXnVmABNXmlDkjIrArcY+ND0JRX6oCEzNq4dy7/+KryygQQrsyy3k0LZjd1Q4/5DnV/kXZUnBgLdf+V+RZ3rg9ZfL5JbaGwN3rniN9PL6u8QgKKx14oYMu0y2bKygAhvTej8RLSnF9w19QsAok6IPnhuXuzrLMIEpmsx9LZqYq39pD5srYLMkcD0Ex2FpsAAsqZ8jnNIzc1OjlltFoAqUZeUednmIUssodJDdIPHJAzT57VOkIB74c8Hg7p7bdv949zkoD791okFnUc1vIKyWQDm5vVjCYZJA++1iwCpnCTtF0EkcUzCOKUDsGLWgc94UNr5+5YoDMDRNjyVV3sGT44kMZNJR81clvJh64OIjul8Tjgz9h282qWPUwlljSLWMobQGaZvvm4NCBI9nCQV2RQy4BnndVMM4gwi5hFBlD+mY2jAkDIxbmljAEy+hMx4NFIMQcE1PxDNWQmtYBJMZNZFQBCqoE0vlA41ciQ+Id19jCXWNKOVp4YK6mFyCyLFdql10FAeWUWqKhBYgQws8xe3ss8gwhrkXy6iSFAmWWSRajOYVEcI9+ZspJXQBZ/xofVmIY3cgGki5bcLkU+3SSCgWs16i3fpQABs4dJgJJIq5NDqM/FlAR0A4S7R6sbuInUWjqLLAgItfZQ+Trh0PlAuw9PN8nmiwOSByCMGiaGAbOIajRdApAln7d3Qom08ijM3WuQ8oYS41jUI2A0e9zv0/svX+5/TEUc5P97AwI+q0n2kMy/R1t3sRqkvzE6SSMOp64/kaiqOUnegIDOqZotuzqU+m9GjsYZ7+zh1uYdPi1YJI4ZSxUSFFqtifIEBJW32l0i9P4jk27SqJnL+G5F+ggk5FXckYdQlTr5+mB0VamHPAEBn081e0jh0Mzac0AsLrEGUgt+87B4ANXOFppFNFrPXoCgGVsrQ+a5Yth10a5VNYBoGU9zpR2MsuIs4ggIshFQLXsowGG6WZSSTRaTWP3gwC0fY8+klkkYEyqqhTwAQe2rlT0YtjSvNSlAVJVB+iyy26WPu116w3mA7hy1msTToawBYWh/lezBuO+zqV+y7igHs3gGKaSWpB7Jl1GBhLHiz85gloAwIrhYMuZJ0IDDcpMqGoSrAESpHjlD0i0m3qGGKI9nTDLLuSwBAespFa3PsNvoNGnJPIkP9OdWA4hm9NGABFk87IwJyxMrQFCZqLFDAe2UTTlvTXDkMVYFSB6QlqFP1xIV0AyplYcPLWZZAMKJ4tLt9Gi2agWOKgHpIBFtSSgmgF0fMGGF7qcNCKPuEEkrZhCZ4gMKLhryiXKN6jJIP2iGTJh6XlFdwpBa5HpEGxA0kks6RYqZPs8bLE8pzq1xTLWAKGeSfDmW5OJEZeqEawLCCSjc/VaMoDHpqxJINQCYu0bVgHTO+S4799yDEP/OagUzo+UskFqAcOoOtF4qmih5Dx30YfKpuakdjmprkKFBOdFxBphPh0O6Qz4ryoiaWdrdPTzcf5oaiwYgHDhQx+wCVa4L82vTWj/VyqryAavOIOVADSCBapPsJIwV/6sZSwqIBxwGds/TWmVBPkZ+M4Awu0qUaEcGhdm1mYREAggHDmSFuru+mpzqJ6K2dY45B2kKkPwwzKJ5zg4py44XL9Ld3Ou0zPuPQsIFhAkHqaXLzJSz9s0HtAZHMzXI0PrMSE6axG67ylztwPmE0TNIOIBYwdE1InKdoVKAD4zNao5QJ8zyuOYySG8My0jX3eOq9GJq8yeOggLCheP0PKMdtaJLmIG3AOOcmb9+vX9r6cSW124WkEJuabaBx2x9BuUkD34O5Rejs5Wvf1ltRwDhwjHmoAbt8ykfnW11Wzq3xrWbBqTMJvt9km6Xp9jzCSyCLHaGZL9P+U2/2Z+8oEc9dihtHh7uXw+CiVm2KO7drKQaTsYqAHHMJqX9zrCcWpb/pJQ42j2fbyJreomYv+F1OKQ/uvULy3td7NK6pFotIP2DMWuD2SgeB5As0LykWj0gfTZhLOqRPCAOem6BnDWOx/Qe2ZnQih1XI7HGDG7cumxlji3HObudxvLmHtdeNSAL1SYe81bDPVYnp8aMunpA+od2bG3W4LxmY1hbET5nqM0AUoIS9cmcW4z+fTWtW+TpNwfIIKNob+FGbN/KsfCrAa08GGWcmwUkpNese3w4LVB+XmNnavbJiwM2D8gIKB4rzcgceR5L3vrvOagl7xWADKzfFfP5M6j9CvSS8+Nx78uOgGtvP3oMpMZ7BCBXZmXFsAQURBoDEKKhVgDL4/GYHk8fCf9x+lCc6NOsRJOt4rAAhDmNJTDHY8rvq0u+Ts8cxdXT+iyR/zHOzRfbXAMHIFzLXaldMjD5z47QXLJDvm9kCKVJrfHbvHqPVseVcqZ5+TK9OhzO0OTCP79ld9l6vttdfi+3o+fof/7Jsqj/fbc7/37+7/wC169f6XHrbVjrWY4MYm3huH7TFghAmp6+GLy1BQIQawvH9Zu2QADS9PTF4K0tEIBYWziu37QFApCmpy8Gb22BAMTawnH9pi0QgDQ9fTF4awsEINYWjus3bYEApOnpi8FbWyAAsbZwXL9pCwQgTU9fDN7aAgGItYXj+k1bIABpevpi8NYWCECsLRzXb9oC/wNvkTibUnA0iQAAAABJRU5ErkJggg==;" vertex="1" parent="1">
          <mxGeometry x="500" y="130" width="80" height="80" as="geometry" />
        </mxCell>
      </root>
    </mxGraphModel>
  </diagram>
</mxfile>
